<svg id="visual" viewBox="0 0 900 600" width="900" height="600" xmlns="http://www.w3.org/2000/svg" xmlns:xlink="http://www.w3.org/1999/xlink" version="1.1"><g stroke-width="1" stroke-linejoin="bevel"><path d="M482.5 284L484.5 338L520.4 288Z" fill="#205a7a" stroke="#205a7a"></path><path d="M484.5 338L548.4 344L520.4 288Z" fill="#246688" stroke="#246688"></path><path d="M569.4 263L542.4 241L520.4 288Z" fill="#19435d" stroke="#19435d"></path><path d="M520.4 288L476.5 229L482.5 284Z" fill="#1d4e6b" stroke="#1d4e6b"></path><path d="M407.5 326L439.5 368L484.5 338Z" fill="#1d4e6b" stroke="#1d4e6b"></path><path d="M484.5 338L532.4 400L548.4 344Z" fill="#19435d" stroke="#19435d"></path><path d="M542.4 241L476.5 229L520.4 288Z" fill="#297ea6" stroke="#297ea6"></path><path d="M482.5 284L407.5 326L484.5 338Z" fill="#081a28" stroke="#081a28"></path><path d="M548.4 344L569.4 263L520.4 288Z" fill="#19435d" stroke="#19435d"></path><path d="M412.5 221L407.5 326L482.5 284Z" fill="#246688" stroke="#246688"></path><path d="M455.5 416L532.4 400L484.5 338Z" fill="#0c2435" stroke="#0c2435"></path><path d="M542.4 241L489.5 209L476.5 229Z" fill="#00101c" stroke="#00101c"></path><path d="M476.5 229L412.5 221L482.5 284Z" fill="#205a7a" stroke="#205a7a"></path><path d="M532.4 400L575.4 378L548.4 344Z" fill="#277297" stroke="#277297"></path><path d="M548.4 344L599.4 282L569.4 263Z" fill="#00101c" stroke="#00101c"></path><path d="M606.4 368L599.4 282L548.4 344Z" fill="#277297" stroke="#277297"></path><path d="M591.4 202L536.4 181L542.4 241Z" fill="#297ea6" stroke="#297ea6"></path><path d="M430.5 408L455.5 416L439.5 368Z" fill="#15384f" stroke="#15384f"></path><path d="M439.5 368L455.5 416L484.5 338Z" fill="#112e42" stroke="#112e42"></path><path d="M396.6 399L430.5 408L439.5 368Z" fill="#0c2435" stroke="#0c2435"></path><path d="M618.3 379L606.4 368L575.4 378Z" fill="#112e42" stroke="#112e42"></path><path d="M575.4 378L606.4 368L548.4 344Z" fill="#277297" stroke="#277297"></path><path d="M436.5 181L412.5 221L476.5 229Z" fill="#277297" stroke="#277297"></path><path d="M521.4 472L551.4 431L532.4 400Z" fill="#1d4e6b" stroke="#1d4e6b"></path><path d="M532.4 400L551.4 431L575.4 378Z" fill="#297ea6" stroke="#297ea6"></path><path d="M591.4 202L542.4 241L569.4 263Z" fill="#277297" stroke="#277297"></path><path d="M542.4 241L536.4 181L489.5 209Z" fill="#297ea6" stroke="#297ea6"></path><path d="M489.5 209L436.5 181L476.5 229Z" fill="#297ea6" stroke="#297ea6"></path><path d="M361.6 333L396.6 399L407.5 326Z" fill="#1d4e6b" stroke="#1d4e6b"></path><path d="M407.5 326L396.6 399L439.5 368Z" fill="#00101c" stroke="#00101c"></path><path d="M430.5 408L463.5 454L455.5 416Z" fill="#277297" stroke="#277297"></path><path d="M536.4 181L503.5 174L489.5 209Z" fill="#277297" stroke="#277297"></path><path d="M551.4 431L618.3 379L575.4 378Z" fill="#246688" stroke="#246688"></path><path d="M606.4 368L649.3 308L599.4 282Z" fill="#00101c" stroke="#00101c"></path><path d="M355.6 309L361.6 333L407.5 326Z" fill="#246688" stroke="#246688"></path><path d="M354.6 188L375.6 240L412.5 221Z" fill="#205a7a" stroke="#205a7a"></path><path d="M412.5 221L375.6 240L407.5 326Z" fill="#246688" stroke="#246688"></path><path d="M620.3 219L569.4 263L599.4 282Z" fill="#19435d" stroke="#19435d"></path><path d="M620.3 219L591.4 202L569.4 263Z" fill="#0c2435" stroke="#0c2435"></path><path d="M375.6 240L355.6 309L407.5 326Z" fill="#1d4e6b" stroke="#1d4e6b"></path><path d="M499.4 165L436.5 181L489.5 209Z" fill="#297ea6" stroke="#297ea6"></path><path d="M536.4 181L499.4 165L503.5 174Z" fill="#1d4e6b" stroke="#1d4e6b"></path><path d="M503.5 174L499.4 165L489.5 209Z" fill="#081a28" stroke="#081a28"></path><path d="M527.4 89L499.4 165L536.4 181Z" fill="#277297" stroke="#277297"></path><path d="M445.5 480L463.5 454L430.5 408Z" fill="#297ea6" stroke="#297ea6"></path><path d="M455.5 416L463.5 454L532.4 400Z" fill="#00101c" stroke="#00101c"></path><path d="M641.3 380L649.3 308L606.4 368Z" fill="#246688" stroke="#246688"></path><path d="M664.2 237L620.3 219L599.4 282Z" fill="#205a7a" stroke="#205a7a"></path><path d="M316.6 427L394.6 422L396.6 399Z" fill="#112e42" stroke="#112e42"></path><path d="M396.6 399L394.6 422L430.5 408Z" fill="#19435d" stroke="#19435d"></path><path d="M630.3 460L641.3 380L618.3 379Z" fill="#205a7a" stroke="#205a7a"></path><path d="M618.3 379L641.3 380L606.4 368Z" fill="#19435d" stroke="#19435d"></path><path d="M463.5 454L521.4 472L532.4 400Z" fill="#205a7a" stroke="#205a7a"></path><path d="M551.4 431L630.3 460L618.3 379Z" fill="#112e42" stroke="#112e42"></path><path d="M664.2 237L629.3 207L620.3 219Z" fill="#081a28" stroke="#081a28"></path><path d="M620.3 219L629.3 207L591.4 202Z" fill="#205a7a" stroke="#205a7a"></path><path d="M591.4 202L585.4 163L536.4 181Z" fill="#112e42" stroke="#112e42"></path><path d="M461.5 120L422.5 159L436.5 181Z" fill="#19435d" stroke="#19435d"></path><path d="M436.5 181L422.5 159L412.5 221Z" fill="#112e42" stroke="#112e42"></path><path d="M629.3 207L585.4 163L591.4 202Z" fill="#15384f" stroke="#15384f"></path><path d="M499.4 165L461.5 120L436.5 181Z" fill="#246688" stroke="#246688"></path><path d="M375.6 240L325.6 283L355.6 309Z" fill="#112e42" stroke="#112e42"></path><path d="M291.7 347L318.6 372L361.6 333Z" fill="#00101c" stroke="#00101c"></path><path d="M361.6 333L318.6 372L396.6 399Z" fill="#081a28" stroke="#081a28"></path><path d="M337.6 202L325.6 283L375.6 240Z" fill="#15384f" stroke="#15384f"></path><path d="M463.5 454L519.4 485L521.4 472Z" fill="#081a28" stroke="#081a28"></path><path d="M521.4 472L555.4 480L551.4 431Z" fill="#0c2435" stroke="#0c2435"></path><path d="M463.5 503L519.4 485L463.5 454Z" fill="#205a7a" stroke="#205a7a"></path><path d="M641.3 380L675.2 329L649.3 308Z" fill="#15384f" stroke="#15384f"></path><path d="M649.3 308L664.2 237L599.4 282Z" fill="#205a7a" stroke="#205a7a"></path><path d="M394.6 422L445.5 480L430.5 408Z" fill="#15384f" stroke="#15384f"></path><path d="M519.4 485L555.4 480L521.4 472Z" fill="#246688" stroke="#246688"></path><path d="M704.2 328L664.2 237L649.3 308Z" fill="#112e42" stroke="#112e42"></path><path d="M629.3 207L633.3 120L585.4 163Z" fill="#19435d" stroke="#19435d"></path><path d="M422.5 159L354.6 188L412.5 221Z" fill="#297ea6" stroke="#297ea6"></path><path d="M630.3 460L675.2 381L641.3 380Z" fill="#112e42" stroke="#112e42"></path><path d="M641.3 380L675.2 381L675.2 329Z" fill="#1d4e6b" stroke="#1d4e6b"></path><path d="M291.7 347L361.6 333L355.6 309Z" fill="#15384f" stroke="#15384f"></path><path d="M394.6 422L382.6 483L445.5 480Z" fill="#081a28" stroke="#081a28"></path><path d="M291.7 347L317.6 377L318.6 372Z" fill="#112e42" stroke="#112e42"></path><path d="M318.6 372L317.6 377L396.6 399Z" fill="#205a7a" stroke="#205a7a"></path><path d="M527.4 89L461.5 120L499.4 165Z" fill="#277297" stroke="#277297"></path><path d="M422.5 159L342.6 127L354.6 188Z" fill="#297ea6" stroke="#297ea6"></path><path d="M354.6 188L337.6 202L375.6 240Z" fill="#1d4e6b" stroke="#1d4e6b"></path><path d="M395.5 527L463.5 503L445.5 480Z" fill="#1d4e6b" stroke="#1d4e6b"></path><path d="M445.5 480L463.5 503L463.5 454Z" fill="#19435d" stroke="#19435d"></path><path d="M601.4 566L610.3 492L555.4 480Z" fill="#246688" stroke="#246688"></path><path d="M555.4 480L630.3 460L551.4 431Z" fill="#205a7a" stroke="#205a7a"></path><path d="M675.2 381L704.2 328L675.2 329Z" fill="#112e42" stroke="#112e42"></path><path d="M675.2 329L704.2 328L649.3 308Z" fill="#0c2435" stroke="#0c2435"></path><path d="M737.2 301L687.2 225L664.2 237Z" fill="#277297" stroke="#277297"></path><path d="M664.2 237L687.2 225L629.3 207Z" fill="#297ea6" stroke="#297ea6"></path><path d="M316.6 427L382.6 483L394.6 422Z" fill="#0c2435" stroke="#0c2435"></path><path d="M282.7 247L293.6 272L325.6 283Z" fill="#0c2435" stroke="#0c2435"></path><path d="M286.7 304L291.7 347L355.6 309Z" fill="#081a28" stroke="#081a28"></path><path d="M286.7 304L355.6 309L325.6 283Z" fill="#277297" stroke="#277297"></path><path d="M317.6 377L316.6 427L396.6 399Z" fill="#081a28" stroke="#081a28"></path><path d="M293.6 272L286.7 304L325.6 283Z" fill="#00101c" stroke="#00101c"></path><path d="M555.4 480L610.3 492L630.3 460Z" fill="#205a7a" stroke="#205a7a"></path><path d="M510.4 547L555.4 480L519.4 485Z" fill="#15384f" stroke="#15384f"></path><path d="M461.5 120L416.5 113L422.5 159Z" fill="#00101c" stroke="#00101c"></path><path d="M354.6 188L321.6 173L337.6 202Z" fill="#15384f" stroke="#15384f"></path><path d="M249.7 410L316.6 427L317.6 377Z" fill="#081a28" stroke="#081a28"></path><path d="M568.4 78L527.4 89L585.4 163Z" fill="#277297" stroke="#277297"></path><path d="M585.4 163L527.4 89L536.4 181Z" fill="#1d4e6b" stroke="#1d4e6b"></path><path d="M461.5 120L445.5 67L416.5 113Z" fill="#19435d" stroke="#19435d"></path><path d="M342.6 127L321.6 173L354.6 188Z" fill="#0c2435" stroke="#0c2435"></path><path d="M337.6 202L282.7 247L325.6 283Z" fill="#277297" stroke="#277297"></path><path d="M255.7 220L282.7 247L337.6 202Z" fill="#205a7a" stroke="#205a7a"></path><path d="M293.6 272L282.7 247L286.7 304Z" fill="#297ea6" stroke="#297ea6"></path><path d="M675.2 381L724.2 356L704.2 328Z" fill="#205a7a" stroke="#205a7a"></path><path d="M704.2 328L737.2 301L664.2 237Z" fill="#1d4e6b" stroke="#1d4e6b"></path><path d="M729.2 428L724.2 356L675.2 381Z" fill="#081a28" stroke="#081a28"></path><path d="M675.2 480L675.2 381L630.3 460Z" fill="#15384f" stroke="#15384f"></path><path d="M673.2 140L633.3 120L629.3 207Z" fill="#15384f" stroke="#15384f"></path><path d="M633.3 120L604.3 102L585.4 163Z" fill="#246688" stroke="#246688"></path><path d="M633.3 120L602.4 98L604.3 102Z" fill="#081a28" stroke="#081a28"></path><path d="M604.3 102L568.4 78L585.4 163Z" fill="#0c2435" stroke="#0c2435"></path><path d="M395.5 527L490.5 547L463.5 503Z" fill="#1d4e6b" stroke="#1d4e6b"></path><path d="M463.5 503L490.5 547L519.4 485Z" fill="#081a28" stroke="#081a28"></path><path d="M490.5 547L510.4 547L519.4 485Z" fill="#081a28" stroke="#081a28"></path><path d="M724.2 356L737.2 301L704.2 328Z" fill="#1d4e6b" stroke="#1d4e6b"></path><path d="M687.2 225L673.2 140L629.3 207Z" fill="#081a28" stroke="#081a28"></path><path d="M345.6 502L395.5 527L382.6 483Z" fill="#112e42" stroke="#112e42"></path><path d="M382.6 483L395.5 527L445.5 480Z" fill="#246688" stroke="#246688"></path><path d="M384.6 80L342.6 127L416.5 113Z" fill="#277297" stroke="#277297"></path><path d="M416.5 113L342.6 127L422.5 159Z" fill="#277297" stroke="#277297"></path><path d="M321.6 173L255.7 220L337.6 202Z" fill="#1d4e6b" stroke="#1d4e6b"></path><path d="M602.4 98L568.4 78L604.3 102Z" fill="#297ea6" stroke="#297ea6"></path><path d="M527.4 89L445.5 67L461.5 120Z" fill="#205a7a" stroke="#205a7a"></path><path d="M727.2 145L673.2 140L687.2 225Z" fill="#081a28" stroke="#081a28"></path><path d="M633.3 120L649.3 48L602.4 98Z" fill="#081a28" stroke="#081a28"></path><path d="M664.2 508L630.3 460L610.3 492Z" fill="#15384f" stroke="#15384f"></path><path d="M664.2 508L675.2 480L630.3 460Z" fill="#081a28" stroke="#081a28"></path><path d="M316.6 427L345.6 502L382.6 483Z" fill="#00101c" stroke="#00101c"></path><path d="M537.4 55L445.5 67L527.4 89Z" fill="#246688" stroke="#246688"></path><path d="M388.6 73L384.6 80L416.5 113Z" fill="#112e42" stroke="#112e42"></path><path d="M657.3 534L664.2 508L610.3 492Z" fill="#00101c" stroke="#00101c"></path><path d="M675.2 480L729.2 428L675.2 381Z" fill="#0c2435" stroke="#0c2435"></path><path d="M566.4 0L537.4 55L568.4 78Z" fill="#00101c" stroke="#00101c"></path><path d="M568.4 78L537.4 55L527.4 89Z" fill="#246688" stroke="#246688"></path><path d="M649.3 48L568.4 78L602.4 98Z" fill="#15384f" stroke="#15384f"></path><path d="M727.2 463L729.2 428L675.2 480Z" fill="#1d4e6b" stroke="#1d4e6b"></path><path d="M790.1 317L757.2 263L737.2 301Z" fill="#246688" stroke="#246688"></path><path d="M285.7 136L321.6 173L342.6 127Z" fill="#19435d" stroke="#19435d"></path><path d="M285.7 136L255.7 220L321.6 173Z" fill="#15384f" stroke="#15384f"></path><path d="M189.8 272L209.8 331L286.7 304Z" fill="#246688" stroke="#246688"></path><path d="M222.8 373L249.7 410L291.7 347Z" fill="#19435d" stroke="#19435d"></path><path d="M445.5 67L388.6 73L416.5 113Z" fill="#297ea6" stroke="#297ea6"></path><path d="M268.7 127L285.7 136L289.6 86Z" fill="#1d4e6b" stroke="#1d4e6b"></path><path d="M440.5 35L388.6 73L445.5 67Z" fill="#205a7a" stroke="#205a7a"></path><path d="M790.1 317L737.2 301L724.2 356Z" fill="#205a7a" stroke="#205a7a"></path><path d="M737.2 301L757.2 263L687.2 225Z" fill="#205a7a" stroke="#205a7a"></path><path d="M345.6 502L381.6 548L395.5 527Z" fill="#1d4e6b" stroke="#1d4e6b"></path><path d="M395.5 527L392.5 565L490.5 547Z" fill="#112e42" stroke="#112e42"></path><path d="M550.4 600L601.4 566L510.4 547Z" fill="#246688" stroke="#246688"></path><path d="M291.7 347L249.7 410L317.6 377Z" fill="#0c2435" stroke="#0c2435"></path><path d="M248.7 484L300.6 540L345.6 502Z" fill="#081a28" stroke="#081a28"></path><path d="M367.6 600L392.5 565L381.6 548Z" fill="#205a7a" stroke="#205a7a"></path><path d="M222.8 373L291.7 347L209.8 331Z" fill="#19435d" stroke="#19435d"></path><path d="M790.1 317L765.1 250L757.2 263Z" fill="#205a7a" stroke="#205a7a"></path><path d="M757.2 263L765.1 250L687.2 225Z" fill="#205a7a" stroke="#205a7a"></path><path d="M601.4 566L657.3 534L610.3 492Z" fill="#297ea6" stroke="#297ea6"></path><path d="M714.2 496L727.2 463L675.2 480Z" fill="#15384f" stroke="#15384f"></path><path d="M714.2 496L675.2 480L664.2 508Z" fill="#1d4e6b" stroke="#1d4e6b"></path><path d="M729.2 428L763.1 407L724.2 356Z" fill="#277297" stroke="#277297"></path><path d="M510.4 547L601.4 566L555.4 480Z" fill="#112e42" stroke="#112e42"></path><path d="M481.5 600L510.4 547L490.5 547Z" fill="#00101c" stroke="#00101c"></path><path d="M285.7 136L342.6 127L289.6 86Z" fill="#1d4e6b" stroke="#1d4e6b"></path><path d="M300.6 540L381.6 548L345.6 502Z" fill="#112e42" stroke="#112e42"></path><path d="M381.6 548L392.5 565L395.5 527Z" fill="#277297" stroke="#277297"></path><path d="M800.1 446L763.1 407L729.2 428Z" fill="#277297" stroke="#277297"></path><path d="M476.5 0L440.5 35L445.5 67Z" fill="#205a7a" stroke="#205a7a"></path><path d="M289.6 86L342.6 127L295.6 64Z" fill="#205a7a" stroke="#205a7a"></path><path d="M770.2 189L727.2 145L687.2 225Z" fill="#205a7a" stroke="#205a7a"></path><path d="M673.2 140L682.2 73L633.3 120Z" fill="#1d4e6b" stroke="#1d4e6b"></path><path d="M222.8 373L239.8 423L249.7 410Z" fill="#297ea6" stroke="#297ea6"></path><path d="M249.7 410L239.8 423L316.6 427Z" fill="#15384f" stroke="#15384f"></path><path d="M209.8 331L291.7 347L286.7 304Z" fill="#00101c" stroke="#00101c"></path><path d="M716.2 520L714.2 496L664.2 508Z" fill="#297ea6" stroke="#297ea6"></path><path d="M727.2 463L800.1 446L729.2 428Z" fill="#081a28" stroke="#081a28"></path><path d="M189.8 272L286.7 304L282.7 247Z" fill="#277297" stroke="#277297"></path><path d="M189.8 272L282.7 247L255.7 220Z" fill="#1d4e6b" stroke="#1d4e6b"></path><path d="M392.5 565L481.5 600L490.5 547Z" fill="#15384f" stroke="#15384f"></path><path d="M763.1 407L790.1 317L724.2 356Z" fill="#0c2435" stroke="#0c2435"></path><path d="M765.1 250L770.2 189L687.2 225Z" fill="#246688" stroke="#246688"></path><path d="M285.7 136L229.8 196L255.7 220Z" fill="#277297" stroke="#277297"></path><path d="M481.5 600L550.4 600L510.4 547Z" fill="#081a28" stroke="#081a28"></path><path d="M718.2 573L716.2 520L657.3 534Z" fill="#277297" stroke="#277297"></path><path d="M342.6 127L384.6 80L295.6 64Z" fill="#112e42" stroke="#112e42"></path><path d="M285.7 136L268.7 127L229.8 196Z" fill="#297ea6" stroke="#297ea6"></path><path d="M160.8 445L234.7 441L239.8 423Z" fill="#0c2435" stroke="#0c2435"></path><path d="M239.8 423L234.7 441L316.6 427Z" fill="#1d4e6b" stroke="#1d4e6b"></path><path d="M160.8 445L239.8 423L222.8 373Z" fill="#246688" stroke="#246688"></path><path d="M804.1 197L770.2 189L765.1 250Z" fill="#00101c" stroke="#00101c"></path><path d="M730.2 80L673.2 140L727.2 145Z" fill="#1d4e6b" stroke="#1d4e6b"></path><path d="M730.2 80L682.2 73L673.2 140Z" fill="#19435d" stroke="#19435d"></path><path d="M537.4 55L476.5 0L445.5 67Z" fill="#246688" stroke="#246688"></path><path d="M792.1 519L800.1 446L727.2 463Z" fill="#297ea6" stroke="#297ea6"></path><path d="M657.3 534L716.2 520L664.2 508Z" fill="#277297" stroke="#277297"></path><path d="M659.3 600L657.3 534L601.4 566Z" fill="#15384f" stroke="#15384f"></path><path d="M682.2 73L649.3 48L633.3 120Z" fill="#297ea6" stroke="#297ea6"></path><path d="M248.7 484L345.6 502L316.6 427Z" fill="#277297" stroke="#277297"></path><path d="M392.5 565L401.5 600L481.5 600Z" fill="#112e42" stroke="#112e42"></path><path d="M234.7 441L248.7 484L316.6 427Z" fill="#081a28" stroke="#081a28"></path><path d="M367.6 600L401.5 600L392.5 565Z" fill="#112e42" stroke="#112e42"></path><path d="M295.6 64L384.6 80L388.6 73Z" fill="#00101c" stroke="#00101c"></path><path d="M177.8 211L201.8 221L182.8 177Z" fill="#277297" stroke="#277297"></path><path d="M201.8 221L229.8 196L182.8 177Z" fill="#081a28" stroke="#081a28"></path><path d="M229.8 196L201.8 221L255.7 220Z" fill="#246688" stroke="#246688"></path><path d="M550.4 600L610.4 600L601.4 566Z" fill="#246688" stroke="#246688"></path><path d="M566.4 0L511.4 0L537.4 55Z" fill="#081a28" stroke="#081a28"></path><path d="M291.7 57L295.6 64L319.6 0Z" fill="#15384f" stroke="#15384f"></path><path d="M511.4 0L476.5 0L537.4 55Z" fill="#081a28" stroke="#081a28"></path><path d="M201.8 221L189.8 272L255.7 220Z" fill="#00101c" stroke="#00101c"></path><path d="M209.8 331L157.8 373L222.8 373Z" fill="#297ea6" stroke="#297ea6"></path><path d="M821.1 321L816.1 314L790.1 317Z" fill="#297ea6" stroke="#297ea6"></path><path d="M790.1 317L816.1 314L765.1 250Z" fill="#277297" stroke="#277297"></path><path d="M821.1 321L790.1 317L763.1 407Z" fill="#00101c" stroke="#00101c"></path><path d="M649.3 48L566.4 0L568.4 78Z" fill="#1d4e6b" stroke="#1d4e6b"></path><path d="M314.6 600L367.6 600L381.6 548Z" fill="#0c2435" stroke="#0c2435"></path><path d="M397.5 0L388.6 73L440.5 35Z" fill="#0c2435" stroke="#0c2435"></path><path d="M289.6 86L240.8 76L268.7 127Z" fill="#205a7a" stroke="#205a7a"></path><path d="M835.1 422L821.1 321L763.1 407Z" fill="#0c2435" stroke="#0c2435"></path><path d="M824.1 216L804.1 197L765.1 250Z" fill="#112e42" stroke="#112e42"></path><path d="M132.8 250L175.8 299L189.8 272Z" fill="#1d4e6b" stroke="#1d4e6b"></path><path d="M189.8 272L175.8 299L209.8 331Z" fill="#112e42" stroke="#112e42"></path><path d="M181.8 489L220.8 528L248.7 484Z" fill="#1d4e6b" stroke="#1d4e6b"></path><path d="M824.1 216L765.1 250L862.1 268Z" fill="#00101c" stroke="#00101c"></path><path d="M798.1 99L730.2 80L727.2 145Z" fill="#15384f" stroke="#15384f"></path><path d="M798.1 99L727.2 145L770.2 189Z" fill="#19435d" stroke="#19435d"></path><path d="M682.2 73L711.2 56L649.3 48Z" fill="#1d4e6b" stroke="#1d4e6b"></path><path d="M649.3 48L655.3 0L566.4 0Z" fill="#0c2435" stroke="#0c2435"></path><path d="M476.5 0L397.5 0L440.5 35Z" fill="#15384f" stroke="#15384f"></path><path d="M319.6 0L295.6 64L388.6 73Z" fill="#277297" stroke="#277297"></path><path d="M295.6 64L291.7 57L289.6 86Z" fill="#246688" stroke="#246688"></path><path d="M397.5 0L392.6 0L388.6 73Z" fill="#277297" stroke="#277297"></path><path d="M730.2 80L721.2 67L682.2 73Z" fill="#246688" stroke="#246688"></path><path d="M792.1 519L727.2 463L714.2 496Z" fill="#205a7a" stroke="#205a7a"></path><path d="M610.4 600L659.3 600L601.4 566Z" fill="#297ea6" stroke="#297ea6"></path><path d="M716.2 520L792.1 519L714.2 496Z" fill="#205a7a" stroke="#205a7a"></path><path d="M721.2 67L711.2 56L682.2 73Z" fill="#1d4e6b" stroke="#1d4e6b"></path><path d="M182.8 177L229.8 196L183.8 156Z" fill="#277297" stroke="#277297"></path><path d="M201.8 221L177.8 211L189.8 272Z" fill="#00101c" stroke="#00101c"></path><path d="M659.3 600L672.2 600L657.3 534Z" fill="#246688" stroke="#246688"></path><path d="M862.1 268L765.1 250L816.1 314Z" fill="#246688" stroke="#246688"></path><path d="M804.1 197L821.1 170L770.2 189Z" fill="#19435d" stroke="#19435d"></path><path d="M672.2 600L718.2 573L657.3 534Z" fill="#0c2435" stroke="#0c2435"></path><path d="M183.8 156L229.8 196L268.7 127Z" fill="#1d4e6b" stroke="#1d4e6b"></path><path d="M250.7 576L314.6 600L300.6 540Z" fill="#112e42" stroke="#112e42"></path><path d="M300.6 540L314.6 600L381.6 548Z" fill="#277297" stroke="#277297"></path><path d="M142.8 363L157.8 373L175.8 299Z" fill="#205a7a" stroke="#205a7a"></path><path d="M175.8 299L157.8 373L209.8 331Z" fill="#15384f" stroke="#15384f"></path><path d="M248.7 484L220.8 528L300.6 540Z" fill="#246688" stroke="#246688"></path><path d="M679.2 0L655.3 0L649.3 48Z" fill="#205a7a" stroke="#205a7a"></path><path d="M291.7 57L240.8 76L289.6 86Z" fill="#00101c" stroke="#00101c"></path><path d="M239.8 55L240.8 76L291.7 57Z" fill="#297ea6" stroke="#297ea6"></path><path d="M240.8 76L183.8 156L268.7 127Z" fill="#00101c" stroke="#00101c"></path><path d="M102.9 188L132.8 250L177.8 211Z" fill="#00101c" stroke="#00101c"></path><path d="M104.9 326L142.8 363L175.8 299Z" fill="#112e42" stroke="#112e42"></path><path d="M824.1 216L821.1 170L804.1 197Z" fill="#1d4e6b" stroke="#1d4e6b"></path><path d="M730.2 80L823.1 35L721.2 67Z" fill="#297ea6" stroke="#297ea6"></path><path d="M713.2 0L679.2 0L711.2 56Z" fill="#246688" stroke="#246688"></path><path d="M181.8 489L248.7 484L234.7 441Z" fill="#1d4e6b" stroke="#1d4e6b"></path><path d="M800.1 446L835.1 422L763.1 407Z" fill="#19435d" stroke="#19435d"></path><path d="M867.1 319L862.1 268L816.1 314Z" fill="#081a28" stroke="#081a28"></path><path d="M838.1 485L835.1 422L800.1 446Z" fill="#205a7a" stroke="#205a7a"></path><path d="M392.6 0L319.6 0L388.6 73Z" fill="#081a28" stroke="#081a28"></path><path d="M713.2 0L711.2 56L721.2 67Z" fill="#205a7a" stroke="#205a7a"></path><path d="M711.2 56L679.2 0L649.3 48Z" fill="#246688" stroke="#246688"></path><path d="M791.1 524L792.1 519L716.2 520Z" fill="#15384f" stroke="#15384f"></path><path d="M132.8 250L189.8 272L177.8 211Z" fill="#081a28" stroke="#081a28"></path><path d="M157.8 373L160.8 445L222.8 373Z" fill="#1d4e6b" stroke="#1d4e6b"></path><path d="M718.2 573L791.1 524L716.2 520Z" fill="#297ea6" stroke="#297ea6"></path><path d="M900 378L871.1 383L900 472Z" fill="#081a28" stroke="#081a28"></path><path d="M220.8 528L250.7 576L300.6 540Z" fill="#19435d" stroke="#19435d"></path><path d="M240.8 76L129.8 110L183.8 156Z" fill="#1d4e6b" stroke="#1d4e6b"></path><path d="M259.7 0L239.8 55L291.7 57Z" fill="#15384f" stroke="#15384f"></path><path d="M121.9 428L160.8 445L117.9 417Z" fill="#277297" stroke="#277297"></path><path d="M220.8 528L213.8 553L250.7 576Z" fill="#246688" stroke="#246688"></path><path d="M160.8 445L181.8 489L234.7 441Z" fill="#1d4e6b" stroke="#1d4e6b"></path><path d="M867.1 319L816.1 314L821.1 321Z" fill="#00101c" stroke="#00101c"></path><path d="M824.1 216L851.1 167L821.1 170Z" fill="#277297" stroke="#277297"></path><path d="M851.1 167L798.1 99L821.1 170Z" fill="#205a7a" stroke="#205a7a"></path><path d="M821.1 170L798.1 99L770.2 189Z" fill="#246688" stroke="#246688"></path><path d="M672.2 600L725.2 600L718.2 573Z" fill="#297ea6" stroke="#297ea6"></path><path d="M718.2 573L796.1 600L791.1 524Z" fill="#246688" stroke="#246688"></path><path d="M871.1 383L867.1 319L821.1 321Z" fill="#1d4e6b" stroke="#1d4e6b"></path><path d="M102.9 188L177.8 211L182.8 177Z" fill="#19435d" stroke="#19435d"></path><path d="M181.8 489L213.8 553L220.8 528Z" fill="#297ea6" stroke="#297ea6"></path><path d="M823.1 35L713.2 0L721.2 67Z" fill="#246688" stroke="#246688"></path><path d="M838.1 485L800.1 446L792.1 519Z" fill="#246688" stroke="#246688"></path><path d="M835.1 422L871.1 383L821.1 321Z" fill="#00101c" stroke="#00101c"></path><path d="M900 177L851.1 167L824.1 216Z" fill="#0c2435" stroke="#0c2435"></path><path d="M838.1 548L792.1 519L791.1 524Z" fill="#081a28" stroke="#081a28"></path><path d="M838.1 548L838.1 485L792.1 519Z" fill="#0c2435" stroke="#0c2435"></path><path d="M200.8 600L243.7 600L250.7 576Z" fill="#1d4e6b" stroke="#1d4e6b"></path><path d="M250.7 576L243.7 600L314.6 600Z" fill="#00101c" stroke="#00101c"></path><path d="M319.6 0L259.7 0L291.7 57Z" fill="#277297" stroke="#277297"></path><path d="M127.8 58L129.8 110L240.8 76Z" fill="#246688" stroke="#246688"></path><path d="M75.9 196L97.9 268L132.8 250Z" fill="#0c2435" stroke="#0c2435"></path><path d="M132.8 250L104.9 326L175.8 299Z" fill="#205a7a" stroke="#205a7a"></path><path d="M117.9 417L160.8 445L157.8 373Z" fill="#00101c" stroke="#00101c"></path><path d="M117.9 417L157.8 373L142.8 363Z" fill="#277297" stroke="#277297"></path><path d="M160.8 445L111.9 482L181.8 489Z" fill="#1d4e6b" stroke="#1d4e6b"></path><path d="M165.8 600L200.8 600L213.8 553Z" fill="#00101c" stroke="#00101c"></path><path d="M213.8 553L200.8 600L250.7 576Z" fill="#277297" stroke="#277297"></path><path d="M85.9 375L117.9 417L142.8 363Z" fill="#19435d" stroke="#19435d"></path><path d="M867.1 319L900 293L862.1 268Z" fill="#277297" stroke="#277297"></path><path d="M862.1 268L900 177L824.1 216Z" fill="#246688" stroke="#246688"></path><path d="M900 352L900 293L867.1 319Z" fill="#0c2435" stroke="#0c2435"></path><path d="M900 293L900 274L862.1 268Z" fill="#1d4e6b" stroke="#1d4e6b"></path><path d="M102.9 188L182.8 177L183.8 156Z" fill="#0c2435" stroke="#0c2435"></path><path d="M132.8 250L97.9 268L104.9 326Z" fill="#297ea6" stroke="#297ea6"></path><path d="M900 378L900 352L871.1 383Z" fill="#1d4e6b" stroke="#1d4e6b"></path><path d="M871.1 383L900 352L867.1 319Z" fill="#15384f" stroke="#15384f"></path><path d="M900 472L871.1 383L835.1 422Z" fill="#15384f" stroke="#15384f"></path><path d="M259.7 0L226.8 0L239.8 55Z" fill="#00101c" stroke="#00101c"></path><path d="M796.1 600L838.1 548L791.1 524Z" fill="#15384f" stroke="#15384f"></path><path d="M838.1 485L900 472L835.1 422Z" fill="#15384f" stroke="#15384f"></path><path d="M95.9 139L102.9 188L183.8 156Z" fill="#081a28" stroke="#081a28"></path><path d="M725.2 600L796.1 600L718.2 573Z" fill="#00101c" stroke="#00101c"></path><path d="M144.8 553L213.8 553L181.8 489Z" fill="#297ea6" stroke="#297ea6"></path><path d="M26.9 454L111.9 482L121.9 428Z" fill="#112e42" stroke="#112e42"></path><path d="M121.9 428L111.9 482L160.8 445Z" fill="#246688" stroke="#246688"></path><path d="M104.9 326L85.9 375L142.8 363Z" fill="#15384f" stroke="#15384f"></path><path d="M47.9 348L85.9 375L104.9 326Z" fill="#0c2435" stroke="#0c2435"></path><path d="M68.9 309L104.9 326L97.9 268Z" fill="#205a7a" stroke="#205a7a"></path><path d="M127.8 58L240.8 76L239.8 55Z" fill="#246688" stroke="#246688"></path><path d="M900 274L900 177L862.1 268Z" fill="#205a7a" stroke="#205a7a"></path><path d="M855.1 58L823.1 35L798.1 99Z" fill="#1d4e6b" stroke="#1d4e6b"></path><path d="M798.1 99L823.1 35L730.2 80Z" fill="#00101c" stroke="#00101c"></path><path d="M28.9 429L121.9 428L117.9 417Z" fill="#081a28" stroke="#081a28"></path><path d="M871.1 87L798.1 99L851.1 167Z" fill="#205a7a" stroke="#205a7a"></path><path d="M900 177L900 165L851.1 167Z" fill="#0c2435" stroke="#0c2435"></path><path d="M111.9 482L144.8 553L181.8 489Z" fill="#277297" stroke="#277297"></path><path d="M48.9 271L68.9 309L97.9 268Z" fill="#205a7a" stroke="#205a7a"></path><path d="M26.9 454L75.9 528L111.9 482Z" fill="#297ea6" stroke="#297ea6"></path><path d="M796.1 600L818.1 600L838.1 548Z" fill="#0c2435" stroke="#0c2435"></path><path d="M900 477L838.1 485L900 552Z" fill="#1d4e6b" stroke="#1d4e6b"></path><path d="M900 477L900 472L838.1 485Z" fill="#297ea6" stroke="#297ea6"></path><path d="M900 165L871.1 87L851.1 167Z" fill="#112e42" stroke="#112e42"></path><path d="M900 552L838.1 485L838.1 548Z" fill="#297ea6" stroke="#297ea6"></path><path d="M871.1 87L855.1 58L798.1 99Z" fill="#277297" stroke="#277297"></path><path d="M90.9 85L95.9 139L129.8 110Z" fill="#081a28" stroke="#081a28"></path><path d="M129.8 110L95.9 139L183.8 156Z" fill="#297ea6" stroke="#297ea6"></path><path d="M102.9 188L75.9 196L132.8 250Z" fill="#246688" stroke="#246688"></path><path d="M51.9 163L75.9 196L102.9 188Z" fill="#1d4e6b" stroke="#1d4e6b"></path><path d="M125.9 600L165.8 600L144.8 553Z" fill="#205a7a" stroke="#205a7a"></path><path d="M144.8 553L165.8 600L213.8 553Z" fill="#1d4e6b" stroke="#1d4e6b"></path><path d="M854.1 0L819.1 0L823.1 35Z" fill="#112e42" stroke="#112e42"></path><path d="M823.1 35L819.1 0L713.2 0Z" fill="#246688" stroke="#246688"></path><path d="M173.8 0L127.8 58L239.8 55Z" fill="#1d4e6b" stroke="#1d4e6b"></path><path d="M226.8 0L173.8 0L239.8 55Z" fill="#205a7a" stroke="#205a7a"></path><path d="M0 270L48.9 271L0 226Z" fill="#112e42" stroke="#112e42"></path><path d="M75.9 196L48.9 271L97.9 268Z" fill="#112e42" stroke="#112e42"></path><path d="M68.9 309L47.9 348L104.9 326Z" fill="#0c2435" stroke="#0c2435"></path><path d="M0 321L47.9 348L68.9 309Z" fill="#0c2435" stroke="#0c2435"></path><path d="M111.9 482L95.9 529L144.8 553Z" fill="#081a28" stroke="#081a28"></path><path d="M75.9 528L95.9 529L111.9 482Z" fill="#246688" stroke="#246688"></path><path d="M871.1 87L900 49L855.1 58Z" fill="#00101c" stroke="#00101c"></path><path d="M855.1 58L854.1 0L823.1 35Z" fill="#15384f" stroke="#15384f"></path><path d="M900 165L900 83L871.1 87Z" fill="#112e42" stroke="#112e42"></path><path d="M127.8 58L90.9 85L129.8 110Z" fill="#297ea6" stroke="#297ea6"></path><path d="M95.9 139L51.9 163L102.9 188Z" fill="#1d4e6b" stroke="#1d4e6b"></path><path d="M76.9 88L90.9 85L88.9 37Z" fill="#19435d" stroke="#19435d"></path><path d="M900 600L900 552L838.1 548Z" fill="#297ea6" stroke="#297ea6"></path><path d="M76.9 88L51.9 163L95.9 139Z" fill="#0c2435" stroke="#0c2435"></path><path d="M900 49L854.1 0L855.1 58Z" fill="#297ea6" stroke="#297ea6"></path><path d="M95.9 529L125.9 600L144.8 553Z" fill="#112e42" stroke="#112e42"></path><path d="M28.9 429L117.9 417L85.9 375Z" fill="#1d4e6b" stroke="#1d4e6b"></path><path d="M95.9 529L53.9 600L125.9 600Z" fill="#0c2435" stroke="#0c2435"></path><path d="M88.9 37L90.9 85L127.8 58Z" fill="#246688" stroke="#246688"></path><path d="M90.9 85L76.9 88L95.9 139Z" fill="#0c2435" stroke="#0c2435"></path><path d="M900 83L900 49L871.1 87Z" fill="#081a28" stroke="#081a28"></path><path d="M0 391L28.9 429L47.9 348Z" fill="#205a7a" stroke="#205a7a"></path><path d="M47.9 348L28.9 429L85.9 375Z" fill="#205a7a" stroke="#205a7a"></path><path d="M0 321L68.9 309L48.9 271Z" fill="#00101c" stroke="#00101c"></path><path d="M173.8 0L118.9 0L127.8 58Z" fill="#19435d" stroke="#19435d"></path><path d="M118.9 0L88.9 37L127.8 58Z" fill="#1d4e6b" stroke="#1d4e6b"></path><path d="M0 221L75.9 196L51.9 163Z" fill="#081a28" stroke="#081a28"></path><path d="M28.9 429L26.9 454L121.9 428Z" fill="#19435d" stroke="#19435d"></path><path d="M818.1 600L900 600L838.1 548Z" fill="#00101c" stroke="#00101c"></path><path d="M0 270L0 321L48.9 271Z" fill="#19435d" stroke="#19435d"></path><path d="M28.9 429L0 444L26.9 454Z" fill="#297ea6" stroke="#297ea6"></path><path d="M48.9 271L75.9 196L0 226Z" fill="#297ea6" stroke="#297ea6"></path><path d="M26.9 454L47.9 527L75.9 528Z" fill="#112e42" stroke="#112e42"></path><path d="M75.9 528L53.9 600L95.9 529Z" fill="#297ea6" stroke="#297ea6"></path><path d="M0 226L75.9 196L0 221Z" fill="#1d4e6b" stroke="#1d4e6b"></path><path d="M0 321L0 391L47.9 348Z" fill="#297ea6" stroke="#297ea6"></path><path d="M26.9 454L0 500L47.9 527Z" fill="#15384f" stroke="#15384f"></path><path d="M0 221L51.9 163L0 145Z" fill="#112e42" stroke="#112e42"></path><path d="M0 145L51.9 163L76.9 88Z" fill="#19435d" stroke="#19435d"></path><path d="M900 49L900 0L854.1 0Z" fill="#081a28" stroke="#081a28"></path><path d="M57.9 0L51.9 54L88.9 37Z" fill="#00101c" stroke="#00101c"></path><path d="M88.9 37L51.9 54L76.9 88Z" fill="#00101c" stroke="#00101c"></path><path d="M0 391L0 444L28.9 429Z" fill="#297ea6" stroke="#297ea6"></path><path d="M0 82L0 145L76.9 88Z" fill="#081a28" stroke="#081a28"></path><path d="M0 556L53.9 600L47.9 527Z" fill="#0c2435" stroke="#0c2435"></path><path d="M47.9 527L53.9 600L75.9 528Z" fill="#297ea6" stroke="#297ea6"></path><path d="M0 444L0 500L26.9 454Z" fill="#081a28" stroke="#081a28"></path><path d="M118.9 0L57.9 0L88.9 37Z" fill="#0c2435" stroke="#0c2435"></path><path d="M51.9 54L0 82L76.9 88Z" fill="#277297" stroke="#277297"></path><path d="M0 37L0 82L51.9 54Z" fill="#19435d" stroke="#19435d"></path><path d="M0 500L0 556L47.9 527Z" fill="#15384f" stroke="#15384f"></path><path d="M57.9 0L0 37L51.9 54Z" fill="#1d4e6b" stroke="#1d4e6b"></path><path d="M0 556L0 600L53.9 600Z" fill="#205a7a" stroke="#205a7a"></path><path d="M57.9 0L0 0L0 37Z" fill="#297ea6" stroke="#297ea6"></path></g></svg>