<svg id="visual" viewBox="0 0 900 600" width="900" height="600" xmlns="http://www.w3.org/2000/svg" xmlns:xlink="http://www.w3.org/1999/xlink" version="1.1"><path d="M0 55L82 127L164 79L245 55L327 49L409 85L491 49L573 91L655 109L736 97L818 67L900 121L900 0L818 0L736 0L655 0L573 0L491 0L409 0L327 0L245 0L164 0L82 0L0 0Z" fill="#038373"></path><path d="M0 181L82 247L164 199L245 229L327 193L409 247L491 133L573 181L655 235L736 241L818 199L900 253L900 119L818 65L736 95L655 107L573 89L491 47L409 83L327 47L245 53L164 77L82 125L0 53Z" fill="#00957c"></path><path d="M0 415L82 439L164 415L245 451L327 427L409 475L491 319L573 271L655 391L736 403L818 451L900 343L900 251L818 197L736 239L655 233L573 179L491 131L409 245L327 191L245 227L164 197L82 245L0 179Z" fill="#00a784"></path><path d="M0 481L82 505L164 493L245 499L327 475L409 511L491 397L573 313L655 481L736 487L818 493L900 391L900 341L818 449L736 401L655 389L573 269L491 317L409 473L327 425L245 449L164 413L82 437L0 413Z" fill="#00b98a"></path><path d="M0 601L82 601L164 601L245 601L327 601L409 601L491 601L573 601L655 601L736 601L818 601L900 601L900 389L818 491L736 485L655 479L573 311L491 395L409 509L327 473L245 497L164 491L82 503L0 479Z" fill="#00cc8e"></path></svg>